inDegrees=no
num_controls=7
num_derivatives=13
num_iterations=126
num_multipliers=7
num_parameters=0
num_slacks=7
num_states=26
objective=4.672627
objective_accelerations=0.620953
objective_balance=0.079826
objective_effort=0.473303
objective_height=3.435632
objective_ligament=0.062914
solver_duration=1372.959559
status=Solve_Succeeded
success=true
DataType=double
version=3
OpenSimVersion=4.4-2022-07-23-0e9fedc
endheader
time	/jointset/ground_pelvis/pelvis_tilt/value	/jointset/ground_pelvis/pelvis_tx/value	/jointset/ground_pelvis/pelvis_ty/value	/jointset/hip_l/hip_flexion_l/value	/jointset/hip_l/hip_adduction_l/value	/jointset/hip_l/hip_rotation_l/value	/jointset/back/lumbar_extension/value	/jointset/patellofemoral_l/patellar_flexion_l/value	/jointset/knee_l/knee_flexion_l/value	/jointset/knee_l/knee_adduction_l/value	/jointset/knee_l/knee_rotation_l/value	/jointset/ankle_l/ankle_angle_l/value	/jointset/subtalar_l/subtalar_angle_l/value	/jointset/ground_pelvis/pelvis_tilt/speed	/jointset/ground_pelvis/pelvis_tx/speed	/jointset/ground_pelvis/pelvis_ty/speed	/jointset/hip_l/hip_flexion_l/speed	/jointset/hip_l/hip_adduction_l/speed	/jointset/hip_l/hip_rotation_l/speed	/jointset/back/lumbar_extension/speed	/jointset/patellofemoral_l/patellar_flexion_l/speed	/jointset/knee_l/knee_flexion_l/speed	/jointset/knee_l/knee_adduction_l/speed	/jointset/knee_l/knee_rotation_l/speed	/jointset/ankle_l/ankle_angle_l/speed	/jointset/subtalar_l/subtalar_angle_l/speed	/forceset/tau_hip_flexion_l	/forceset/tau_hip_adduction_l	/forceset/tau_hip_rotation_l	/forceset/tau_knee_flexion_l	/forceset/tau_ankle_angle_l	/forceset/tau_subtalar_angle_l	/forceset/tau_lumbar_extension	lambda_cid13_p0	lambda_cid13_p1	lambda_cid13_p2	lambda_cid13_p3	lambda_cid13_p4	lambda_cid13_p5	lambda_cid14_p0	/jointset/ground_pelvis/pelvis_tilt/accel	/jointset/ground_pelvis/pelvis_tx/accel	/jointset/ground_pelvis/pelvis_ty/accel	/jointset/hip_l/hip_flexion_l/accel	/jointset/hip_l/hip_adduction_l/accel	/jointset/hip_l/hip_rotation_l/accel	/jointset/back/lumbar_extension/accel	/jointset/patellofemoral_l/patellar_flexion_l/accel	/jointset/knee_l/knee_flexion_l/accel	/jointset/knee_l/knee_adduction_l/accel	/jointset/knee_l/knee_rotation_l/accel	/jointset/ankle_l/ankle_angle_l/accel	/jointset/subtalar_l/subtalar_angle_l/accel	gamma_cid13_p0	gamma_cid13_p1	gamma_cid13_p2	gamma_cid13_p3	gamma_cid13_p4	gamma_cid13_p5	gamma_cid14_p0
1	-0.3383541186955161	-0.02118570675740146	0.4375565004359177	2.094395082108057	-0.2412360343662565	0.06167315641099855	-0.4363321144549108	1.941803441392477	1.94180344139254	0.1692145443216551	0.1745155721683556	0.436332267790311	0.1388163492459942	-0.007973498468561878	0.001452218782795507	-0.005266499406370509	0.02048677879074653	-0.0004736931695926111	-0.002727685614631319	-1.467881956107617e-05	0.01280589023179459	0.01280589023179619	0.005777461427654272	-2.982498572769566e-05	0.0007183145426808014	-0.0004657095638984541	-0.2494103448127359	-0.002934996484280847	-0.06373147065180873	-0.500701699991571	0.0626408940360359	0.02303191235530362	0.2460886385774284	-27.45652250050304	3.866586756361239	-11.36973732284342	17.26217727551854	-745.1527298446157	-56.11384171951092	-0.03054166902823451	-1.148603922430364	-0.5547007921542463	2.177133806380561	-5.114298064482202	0.03352655147008634	-0.6144904423351846	0.02852394286515138	-6.615835564387906	-6.615835564387911	-1.216141825370174	-0.02067363530634832	-0.6201931480451547	-0.1791352460148516	-5.209921041800567e-09	1.532041429380706e-08	2.145220105600341e-08	2.693435427426751e-09	5.151077657983229e-09	7.053429442970225e-08	-5.442784630242526e-09
1.01	-0.3384898239079889	-0.02119897653627962	0.4376132533776235	2.094341355454983	-0.2412386673990004	0.06161976270651966	-0.436331441183923	1.941599638339788	1.941599638339836	0.1692071304911959	0.1745144982228136	0.4363088547284015	0.1388035356771974	-0.01906119329855533	-0.004113773786727414	0.01666740743057476	-0.03144737408428853	-5.8934485583516e-05	-0.007971557013507819	0.0001320580585547566	-0.0536765725904603	-0.05367657259044949	-0.007275456095934095	-0.0001766638283801292	-0.005406679615592336	-0.00210847356377192	-0.2517745548167563	-0.002518154408175629	-0.06370044487325163	-0.5003811763119064	0.06036517600103935	0.02304337506697253	0.2478906837340908	-28.31383854031915	4.01652470142561	-11.39913147833332	18.17501630146257	-746.7638615396986	-55.9094217689022	-0.03054473459269205	-1.072895457864697	-0.5586814066527622	2.209065142117567	-5.26525993081591	0.04455939919592011	-0.4824041603053217	0.005157316407836582	-6.680966537349492	-6.680966537348143	-1.352137297674526	-0.01041625798924864	-0.609517956977954	-0.1585474067994562	4.019023136400159e-10	-6.219363514224312e-08	-8.22240852960242e-08	3.451210571686529e-08	-9.515362378802278e-09	-2.854520611435894e-07	2.035551268106796e-08
1.02	-0.3387332147076724	-0.02126813282431344	0.4378908545916517	2.093761830066751	-0.2412373310704376	0.0615133165536873	-0.4363298187931009	1.940727707679635	1.940727707679661	0.1690687333693268	0.1745122104389651	0.4362240186434141	0.1387739543824366	-0.02951061591178632	-0.009725083048336183	0.03890315505812605	-0.08467296823140144	0.0003201790916271377	-0.01333817527805313	0.0001751451815757877	-0.120819631260923	-0.1208196312609029	-0.02041919689238245	-0.0002725926408097418	-0.01156629006424361	-0.003819254756684304	-0.254138764820778	-0.002101312332162791	-0.06366941909436943	-0.500060652632257	0.05808945796601655	0.02305483777846955	0.2496927288907436	-29.17203693990366	4.162374139202377	-11.42302746345285	19.13985183974162	-748.3577643765246	-55.72437166703411	-0.0305986508426035	-1.020949479078058	-0.56376413057133	2.237501964501769	-5.372586318897754	0.02639753011036185	-0.6390398154688802	0.007793991845237659	-6.747954734029415	-6.747954734029417	-1.234306479942243	-0.01049162926173918	-0.6271164061205635	-0.1927386846225968	2.268554471524644e-08	-1.43121701689652e-07	-1.924736587051155e-07	1.518966461273052e-08	-3.317634147263437e-08	-6.419879369242777e-07	4.406969441478186e-08
1.03	-0.3390778946716048	-0.02139351087631607	0.4383922408580538	2.092643929290881	-0.2412323842635044	0.06135265320984742	-0.4363281024021406	1.939181282154018	1.939181282154023	0.1687984559276032	0.1745091937988473	0.4360772977864966	0.1387268737902788	-0.03931209610081161	-0.01534588811278124	0.06141701338094931	-0.1390949426400628	0.0006610615283305414	-0.01881265699415867	0.0001630254667282404	-0.1885519306784052	-0.1885519306784236	-0.03364839050481273	-0.0003222027139182751	-0.01779488190867357	-0.005616316466060166	-0.2564329055975163	-0.001660359337214712	-0.06347938767865438	-0.4996766793168523	0.05628342646521409	0.02305176984887853	0.251468424288921	-29.85790403419621	4.281093079569672	-11.43886602015504	19.79302449302591	-749.7804946408545	-55.57106024456036	-0.03066737444853167	-0.9427428026737024	-0.5605438594840872	2.264753510216119	-5.505155067611995	0.0367578986910861	-0.504354320619768	-0.006481089371068924	-6.798849764043652	-6.798849764049407	-1.368992794827725	-0.0008158802730025725	-0.6232820404478209	-0.1760362492555339	4.513930771936486e-08	-2.240846051463604e-07	-3.02790306471932e-07	-4.654624566849162e-09	-5.69291015772527e-08	-9.985294200540211e-07	6.776260966301006e-08
